<svg width="201" height="229" viewBox="0 0 201 229" fill="none" xmlns="http://www.w3.org/2000/svg">
<path d="M0 42.9375C0 35.0209 6.41585 28.625 14.3571 28.625H186.643C194.584 28.625 201 35.0209 201 42.9375C201 50.8541 194.584 57.25 186.643 57.25H14.3571C6.41585 57.25 0 50.8541 0 42.9375ZM0 114.5C0 106.583 6.41585 100.188 14.3571 100.188H186.643C194.584 100.188 201 106.583 201 114.5C201 122.417 194.584 128.812 186.643 128.812H14.3571C6.41585 128.812 0 122.417 0 114.5ZM201 186.062C201 193.979 194.584 200.375 186.643 200.375H14.3571C6.41585 200.375 0 193.979 0 186.062C0 178.146 6.41585 171.75 14.3571 171.75H186.643C194.584 171.75 201 178.146 201 186.062Z" fill="white"/>
</svg>
