<svg width="916" height="173" viewBox="0 0 916 173" fill="none" xmlns="http://www.w3.org/2000/svg">
<path d="M50.6851 0L122.365 1.70157e-06L173.05 50.6705L173.05 122.329L122.365 173L50.6851 173L0 122.329L1.70206e-06 50.6705L50.6851 0Z" fill="black"/>
<path d="M51.8967 2.92415L121.153 2.92415L170.125 51.8817L170.125 121.118L121.153 170.076L51.8967 170.076L2.92508 121.118L2.92508 51.8817L51.8967 2.92415Z" fill="white"/>
<path d="M57.2714 13.112L117.849 13.112L160.683 55.9343V116.494L117.849 159.316H57.2714L14.4368 116.494L14.4368 55.9343L57.2714 13.112Z" fill="#E30000"/>
<path d="M18.4939 48.381V44.9008H55.6117C64.6548 44.9008 71.396 47.0138 75.8354 51.2397C80.3569 55.3828 82.6177 60.9345 82.6177 67.8949V70.7537C82.6177 77.7141 80.3569 83.3072 75.8354 87.5332C71.396 91.7591 64.6548 93.8721 55.6117 93.8721H42.7869V118.979C42.7869 121.797 42.9103 123.495 43.1569 124.075C43.4035 124.572 44.1845 124.904 45.4999 125.07L54.7485 125.94V129.42H18.4939V125.94L25.2762 125.07C26.5916 124.904 27.3726 124.572 27.6192 124.075C27.8658 123.495 27.9891 121.797 27.9891 118.979V55.3414C27.9891 52.5241 27.8658 50.8668 27.6192 50.3697C27.3726 49.7896 26.5916 49.4167 25.2762 49.251L18.4939 48.381ZM55.6117 49.251H42.7869V89.5219H55.6117C59.2289 89.5219 61.983 88.0718 63.8738 85.1716C65.8469 82.2715 66.8334 78.2941 66.8334 73.2395V65.4091C66.8334 60.3545 65.8469 56.4186 63.8738 53.6013C61.983 50.7011 59.2289 49.251 55.6117 49.251Z" fill="white"/>
<path d="M149.782 108.042H153.235V129.42H92.1939V125.94L98.9762 125.07C100.292 124.904 101.073 124.572 101.319 124.075C101.566 123.495 101.689 121.797 101.689 118.979V55.3414C101.689 52.5241 101.566 50.8668 101.319 50.3697C101.073 49.7896 100.292 49.4167 98.9762 49.251L92.1939 48.381V44.9008H152.002V66.2791H148.549L144.603 52.4826C144.356 51.4883 144.068 50.784 143.74 50.3697C143.493 49.8725 142.959 49.5825 142.136 49.4996C141.314 49.3339 139.917 49.251 137.944 49.251H116.487V84.5502H130.545C132.518 84.5502 133.915 84.5087 134.738 84.4259C135.56 84.2602 136.094 83.9701 136.341 83.5558C136.67 83.0587 136.957 82.3129 137.204 81.3186L139.917 71.2508H143.37V102.2H139.917L137.204 92.132C136.957 91.1377 136.67 90.4334 136.341 90.0191C136.094 89.5219 135.56 89.2319 134.738 89.149C133.915 88.9833 132.518 88.9004 130.545 88.9004H116.487V125.07H139.177C141.15 125.07 142.548 125.028 143.37 124.945C144.192 124.78 144.726 124.49 144.973 124.075C145.302 123.578 145.589 122.832 145.836 121.838L149.782 108.042Z" fill="white"/>
<path d="M196.153 3.9883V1.58479H221.998C228.295 1.58479 232.989 3.04406 236.08 5.96261C239.228 8.82393 240.802 12.6581 240.802 17.4651V19.4394C240.802 24.2465 239.228 28.1093 236.08 31.0278C232.989 33.9464 228.295 35.4056 221.998 35.4056H213.068V52.7452C213.068 54.6909 213.154 55.8641 213.326 56.2647C213.498 56.608 214.041 56.8369 214.957 56.9514L221.397 57.5523V59.9558H196.153V57.5523L200.875 56.9514C201.791 56.8369 202.335 56.608 202.507 56.2647C202.679 55.8641 202.764 54.6909 202.764 52.7452V8.79532C202.764 6.84962 202.679 5.70509 202.507 5.36173C202.335 4.96115 201.791 4.70363 200.875 4.58917L196.153 3.9883ZM221.998 4.58917H213.068V32.4012H221.998C224.517 32.4012 226.434 31.3998 227.751 29.3968C229.125 27.3939 229.812 24.647 229.812 21.1562V15.7483C229.812 12.2575 229.125 9.53926 227.751 7.59356C226.434 5.59064 224.517 4.58917 221.998 4.58917Z" fill="white"/>
<path d="M295.145 28.0234V33.4313C295.145 42.2442 293.17 49.0255 289.22 53.7753C285.328 58.4679 279.546 60.8142 271.876 60.8142C264.205 60.8142 258.395 58.4679 254.445 53.7753C250.553 49.0255 248.607 42.2442 248.607 33.4313V28.0234C248.607 19.2105 250.553 12.4578 254.445 7.76524C258.395 3.07267 264.205 0.726386 271.876 0.726386C279.546 0.726386 285.328 3.07267 289.22 7.76524C293.17 12.4578 295.145 19.2105 295.145 28.0234ZM284.155 23.7314C284.155 18.6955 283.725 14.7469 282.867 11.8855C282.008 8.967 280.663 6.87823 278.831 5.61925C277.056 4.36027 274.738 3.73078 271.876 3.73078C269.071 3.73078 266.753 4.36027 264.921 5.61925C263.089 6.87823 261.744 8.967 260.885 11.8855C260.027 14.7469 259.597 18.6955 259.597 23.7314V37.7233C259.597 42.702 260.027 46.6506 260.885 49.5692C261.744 52.4877 263.089 54.6051 264.921 55.9213C266.753 57.1803 269.071 57.8098 271.876 57.8098C274.738 57.8098 277.056 57.1803 278.831 55.9213C280.663 54.6051 282.008 52.4877 282.867 49.5692C283.725 46.6506 284.155 42.702 284.155 37.7233V23.7314Z" fill="white"/>
<path d="M342.871 45.1913H345.275V59.9558H304.49V57.5523L309.212 56.9514C310.128 56.8369 310.672 56.608 310.844 56.2647C311.015 55.8641 311.101 54.6909 311.101 52.7452V8.79532C311.101 6.84962 311.015 5.70509 310.844 5.36173C310.672 4.96115 310.128 4.70363 309.212 4.58917L304.49 3.9883V1.58479H328.016V3.9883L323.294 4.58917C322.378 4.70363 321.834 4.96115 321.662 5.36173C321.491 5.70509 321.405 6.84962 321.405 8.79532V56.9514H335.487C336.86 56.9514 337.834 56.9228 338.406 56.8656C338.978 56.7511 339.35 56.5508 339.522 56.2647C339.751 55.9213 339.952 55.4063 340.123 54.7196L342.871 45.1913Z" fill="white"/>
<path d="M350.189 3.9883V1.58479H373.716V3.9883L368.993 4.58917C368.077 4.70363 367.533 4.96115 367.362 5.36173C367.19 5.70509 367.104 6.84962 367.104 8.79532V52.7452C367.104 54.6909 367.19 55.8641 367.362 56.2647C367.533 56.608 368.077 56.8369 368.993 56.9514L373.716 57.5523V59.9558H350.189V57.5523L354.911 56.9514C355.827 56.8369 356.371 56.608 356.543 56.2647C356.715 55.8641 356.8 54.6909 356.8 52.7452V8.79532C356.8 6.84962 356.715 5.70509 356.543 5.36173C356.371 4.96115 355.827 4.70363 354.911 4.58917L350.189 3.9883Z" fill="white"/>
<path d="M417.365 3.9883V1.58479H434.023V3.9883L429.3 4.58917C428.384 4.70363 427.84 4.96115 427.669 5.36173C427.497 5.70509 427.411 6.84962 427.411 8.79532V59.9558H422.689L391.176 9.05284V52.7452C391.176 54.6909 391.262 55.8641 391.434 56.2647C391.606 56.608 392.15 56.8369 393.065 56.9514L397.788 57.5523V59.9558H381.13V57.5523L385.853 56.9514C386.769 56.8369 387.312 56.608 387.484 56.2647C387.656 55.8641 387.742 54.6909 387.742 52.7452V8.79532C387.742 6.84962 387.656 5.70509 387.484 5.36173C387.312 4.96115 386.769 4.70363 385.853 4.58917L381.13 3.9883V1.58479H398.389L423.977 42.702V8.79532C423.977 6.84962 423.891 5.70509 423.719 5.36173C423.547 4.96115 423.003 4.70363 422.088 4.58917L417.365 3.9883Z" fill="white"/>
<path d="M440.078 3.9883V1.58479H463.605V3.9883L458.882 4.58917C457.967 4.70363 457.423 4.96115 457.251 5.36173C457.079 5.70509 456.993 6.84962 456.993 8.79532V52.7452C456.993 54.6909 457.079 55.8641 457.251 56.2647C457.423 56.608 457.967 56.8369 458.882 56.9514L463.605 57.5523V59.9558H440.078V57.5523L444.801 56.9514C445.717 56.8369 446.26 56.608 446.432 56.2647C446.604 55.8641 446.69 54.6909 446.69 52.7452V8.79532C446.69 6.84962 446.604 5.70509 446.432 5.36173C446.26 4.96115 445.717 4.70363 444.801 4.58917L440.078 3.9883Z" fill="white"/>
<path d="M511.118 45.1913H513.522V59.9558H471.019V57.5523L475.742 56.9514C476.658 56.8369 477.202 56.608 477.373 56.2647C477.545 55.8641 477.631 54.6909 477.631 52.7452V8.79532C477.631 6.84962 477.545 5.70509 477.373 5.36173C477.202 4.96115 476.658 4.70363 475.742 4.58917L471.019 3.9883V1.58479H512.664V16.3492H510.259L507.512 6.82101C507.34 6.13429 507.14 5.64786 506.911 5.36173C506.739 5.01837 506.367 4.81808 505.795 4.76086C505.222 4.6464 504.249 4.58917 502.875 4.58917H487.935V28.9676H497.723C499.097 28.9676 500.07 28.939 500.643 28.8818C501.215 28.7674 501.587 28.5671 501.759 28.2809C501.988 27.9376 502.188 27.4225 502.36 26.7358L504.249 19.7828H506.653V41.1569H504.249L502.36 34.2039C502.188 33.5172 501.988 33.0307 501.759 32.7446C501.587 32.4012 501.215 32.2009 500.643 32.1437C500.07 32.0293 499.097 31.972 497.723 31.972H487.935V56.9514H503.734C505.108 56.9514 506.081 56.9228 506.653 56.8656C507.226 56.7511 507.598 56.5508 507.769 56.2647C507.998 55.9213 508.199 55.4063 508.37 54.7196L511.118 45.1913Z" fill="white"/>
<path d="M520.094 1.58479H567.32V16.3492H564.916L562.168 6.82101C561.996 6.07706 561.796 5.56202 561.567 5.27589C561.395 4.93253 561.023 4.73224 560.451 4.67501C559.878 4.61779 558.905 4.58917 557.531 4.58917H548.859V52.7452C548.859 54.6909 548.945 55.8641 549.116 56.2647C549.288 56.608 549.832 56.8369 550.748 56.9514L555.47 57.5523V59.9558H531.944V57.5523L536.666 56.9514C537.582 56.8369 538.126 56.608 538.298 56.2647C538.469 55.8641 538.555 54.6909 538.555 52.7452V4.58917H529.883C528.566 4.58917 527.593 4.61779 526.963 4.67501C526.391 4.73224 526.019 4.93253 525.847 5.27589C525.675 5.56202 525.475 6.07706 525.246 6.82101L522.498 16.3492H520.094V1.58479Z" fill="white"/>
<path d="M591.982 57.8098C595.416 57.8098 598.25 57.0086 600.482 55.4063C602.772 53.7467 603.917 51.1715 603.917 47.6807C603.917 45.1055 603.144 42.9595 601.598 41.2427C600.11 39.5259 597.42 38.0953 593.527 36.9507L585.542 34.5472C581.535 33.3455 578.444 31.2853 576.268 28.3668C574.15 25.391 573.091 21.6999 573.091 17.2935C573.091 14.3749 573.75 11.6566 575.066 9.13868C576.44 6.62071 578.501 4.58917 581.248 3.04406C584.053 1.49894 587.574 0.726386 591.81 0.726386C596.446 0.726386 600.196 1.58478 603.058 3.30158C605.92 4.96115 607.924 7.13575 609.069 9.82539C610.213 12.515 610.5 15.405 609.927 18.4952L600.053 20.2978C600.969 14.9758 600.568 10.8841 598.851 8.02276C597.191 5.16144 594.472 3.73078 590.694 3.73078C587.774 3.73078 585.427 4.58918 583.653 6.30597C581.935 8.02276 581.077 10.4835 581.077 13.6882C581.077 16.3206 581.821 18.6383 583.309 20.6412C584.855 22.6441 587.373 24.1892 590.865 25.2765L598.851 27.6801C603.201 28.939 606.464 30.8561 608.639 33.4313C610.814 35.9493 611.902 39.4687 611.902 43.9896C611.902 47.1943 611.158 50.0842 609.67 52.6594C608.239 55.1774 606.035 57.1803 603.058 58.6682C600.139 60.0988 596.475 60.8142 592.067 60.8142C588.862 60.8142 585.828 60.3564 582.966 59.4407C580.104 58.4679 577.699 56.8942 575.753 54.7196C573.864 52.5449 572.662 49.5978 572.147 45.8781L577.9 43.8179C578.186 47.4804 578.987 50.3417 580.304 52.4019C581.678 54.4048 583.366 55.8069 585.37 56.608C587.431 57.4092 589.635 57.8098 591.982 57.8098Z" fill="white"/>
<path d="M679.577 45.1913H681.981V59.9558H639.478V57.5523L644.2 56.9514C645.116 56.8369 645.66 56.608 645.832 56.2647C646.004 55.8641 646.09 54.6909 646.09 52.7452V8.79532C646.09 6.84962 646.004 5.70509 645.832 5.36173C645.66 4.96115 645.116 4.70363 644.2 4.58917L639.478 3.9883V1.58479H681.122V16.3492H678.718L675.97 6.82101C675.799 6.13429 675.598 5.64786 675.369 5.36173C675.198 5.01837 674.825 4.81808 674.253 4.76086C673.681 4.6464 672.707 4.58917 671.334 4.58917H656.393V28.9676H666.182C667.556 28.9676 668.529 28.939 669.101 28.8818C669.674 28.7674 670.046 28.5671 670.217 28.2809C670.446 27.9376 670.647 27.4225 670.818 26.7358L672.707 19.7828H675.112V41.1569H672.707L670.818 34.2039C670.647 33.5172 670.446 33.0307 670.217 32.7446C670.046 32.4012 669.674 32.2009 669.101 32.1437C668.529 32.0293 667.556 31.972 666.182 31.972H656.393V56.9514H672.192C673.566 56.9514 674.539 56.9228 675.112 56.8656C675.684 56.7511 676.056 56.5508 676.228 56.2647C676.457 55.9213 676.657 55.4063 676.829 54.7196L679.577 45.1913Z" fill="white"/>
<path d="M723.5 20.2978H725.904V41.6719H723.5L721.611 34.7189C721.439 34.0322 721.239 33.5458 721.01 33.2596C720.838 32.9163 720.466 32.716 719.893 32.6588C719.321 32.5443 718.348 32.4871 716.974 32.4871H708.13V52.7452C708.13 54.6909 708.216 55.8641 708.387 56.2647C708.559 56.608 709.103 56.8369 710.019 56.9514L716.459 57.5523V59.9558H691.215V57.5523L695.937 56.9514C696.853 56.8369 697.397 56.608 697.568 56.2647C697.74 55.8641 697.826 54.6909 697.826 52.7452V8.79532C697.826 6.84962 697.74 5.70509 697.568 5.36173C697.397 4.96115 696.853 4.70363 695.937 4.58917L691.215 3.9883V1.58479H731.914V16.3492H729.51L726.762 6.82101C726.591 6.13429 726.39 5.64786 726.161 5.36173C725.99 5.01837 725.618 4.81808 725.045 4.76086C724.473 4.6464 723.5 4.58917 722.126 4.58917H708.13V29.4827H716.974C718.348 29.4827 719.321 29.4541 719.893 29.3968C720.466 29.2824 720.838 29.0821 721.01 28.796C721.239 28.4526 721.439 27.9376 721.611 27.2509L723.5 20.2978Z" fill="white"/>
<path d="M736.097 1.58479H783.322V16.3492H780.918L778.17 6.82101C777.999 6.07706 777.798 5.56202 777.569 5.27589C777.398 4.93253 777.025 4.73224 776.453 4.67501C775.881 4.61779 774.907 4.58917 773.534 4.58917H764.861V52.7452C764.861 54.6909 764.947 55.8641 765.119 56.2647C765.291 56.608 765.834 56.8369 766.75 56.9514L771.473 57.5523V59.9558H747.946V57.5523L752.669 56.9514C753.585 56.8369 754.128 56.608 754.3 56.2647C754.472 55.8641 754.558 54.6909 754.558 52.7452V4.58917H745.885C744.569 4.58917 743.596 4.61779 742.966 4.67501C742.393 4.73224 742.021 4.93253 741.85 5.27589C741.678 5.56202 741.478 6.07706 741.249 6.82101L738.501 16.3492H736.097V1.58479Z" fill="white"/>
<path d="M828.162 45.1913H830.566V59.9558H788.063V57.5523L792.786 56.9514C793.702 56.8369 794.246 56.608 794.417 56.2647C794.589 55.8641 794.675 54.6909 794.675 52.7452V8.79532C794.675 6.84962 794.589 5.70509 794.417 5.36173C794.246 4.96115 793.702 4.70363 792.786 4.58917L788.063 3.9883V1.58479H829.708V16.3492H827.304L824.556 6.82101C824.384 6.13429 824.184 5.64786 823.955 5.36173C823.783 5.01837 823.411 4.81808 822.839 4.76086C822.266 4.6464 821.293 4.58917 819.919 4.58917H804.979V28.9676H814.767C816.141 28.9676 817.114 28.939 817.687 28.8818C818.259 28.7674 818.631 28.5671 818.803 28.2809C819.032 27.9376 819.232 27.4225 819.404 26.7358L821.293 19.7828H823.697V41.1569H821.293L819.404 34.2039C819.232 33.5172 819.032 33.0307 818.803 32.7446C818.631 32.4012 818.259 32.2009 817.687 32.1437C817.114 32.0293 816.141 31.972 814.767 31.972H804.979V56.9514H820.778C822.152 56.9514 823.125 56.9228 823.697 56.8656C824.27 56.7511 824.642 56.5508 824.813 56.2647C825.042 55.9213 825.243 55.4063 825.414 54.7196L828.162 45.1913Z" fill="white"/>
<path d="M839.8 3.9883V1.58479H865.731C871.742 1.58479 876.378 2.92961 879.641 5.61925C882.904 8.3089 884.536 11.9142 884.536 16.4351V18.4094C884.536 21.843 883.591 24.7615 881.702 27.165C879.813 29.5685 877.094 31.2853 873.545 32.3154L884.278 52.7452C884.965 54.0042 885.48 54.9198 885.823 55.4921C886.167 56.0644 886.482 56.4363 886.768 56.608C887.111 56.7225 887.569 56.8369 888.142 56.9514L892.006 57.5523V59.9558H875.949L862.984 33.3455H856.715V52.7452C856.715 54.6909 856.801 55.8641 856.973 56.2647C857.145 56.608 857.689 56.8369 858.604 56.9514L863.327 57.5523V59.9558H839.8V57.5523L844.523 56.9514C845.439 56.8369 845.982 56.608 846.154 56.2647C846.326 55.8641 846.412 54.6909 846.412 52.7452V8.79532C846.412 6.84962 846.326 5.70509 846.154 5.36173C845.982 4.96115 845.439 4.70363 844.523 4.58917L839.8 3.9883ZM865.731 4.58917H856.715V30.3411H865.731C868.25 30.3411 870.168 29.5685 871.484 28.0234C872.858 26.4211 873.545 23.5025 873.545 19.2678V15.5767C873.545 11.3419 872.858 8.45196 871.484 6.90685C870.168 5.36173 868.25 4.58917 865.731 4.58917Z" fill="white"/>
<path d="M893.332 32.7446V29.7402H916V32.7446H893.332Z" fill="white"/>
<path d="M232.384 115.448V113.044H249.042V115.448L244.32 116.049C243.404 116.163 242.86 116.421 242.688 116.821C242.516 117.165 242.431 118.309 242.431 120.255V171.415H237.708L206.196 120.512V164.205C206.196 166.15 206.282 167.324 206.453 167.724C206.625 168.068 207.169 168.296 208.085 168.411L212.807 169.012V171.415H196.15V169.012L200.872 168.411C201.788 168.296 202.332 168.068 202.504 167.724C202.675 167.324 202.761 166.15 202.761 164.205V120.255C202.761 118.309 202.675 117.165 202.504 116.821C202.332 116.421 201.788 116.163 200.872 116.049L196.15 115.448V113.044H213.408L238.996 154.161V120.255C238.996 118.309 238.91 117.165 238.738 116.821C238.567 116.421 238.023 116.163 237.107 116.049L232.384 115.448Z" fill="white"/>
<path d="M267.043 169.012V171.415H250.471V169.012L255.194 168.411C255.823 168.296 256.281 168.182 256.567 168.068C256.854 167.896 257.111 167.524 257.34 166.952C257.569 166.379 257.884 165.464 258.285 164.205L274.685 113.044H282.069L298.555 164.205C298.956 165.464 299.271 166.379 299.5 166.952C299.728 167.524 299.986 167.896 300.272 168.068C300.616 168.182 301.074 168.296 301.646 168.411L306.369 169.012V171.415H282.67V169.012L287.393 168.411C288.309 168.296 288.795 168.068 288.852 167.724C288.967 167.324 288.709 166.15 288.08 164.205L284.817 153.561H264.982L261.633 164.205C261.061 166.15 260.803 167.324 260.861 167.724C260.918 168.068 261.404 168.296 262.32 168.411L267.043 169.012ZM266.012 150.556H283.872L275.028 122.057L266.012 150.556Z" fill="white"/>
<path d="M302.579 113.044H349.805V127.809H347.4L344.653 118.28C344.481 117.537 344.281 117.022 344.052 116.735C343.88 116.392 343.508 116.192 342.935 116.135C342.363 116.077 341.39 116.049 340.016 116.049H331.344V164.205C331.344 166.15 331.43 167.324 331.601 167.724C331.773 168.068 332.317 168.296 333.233 168.411L337.955 169.012V171.415H314.429V169.012L319.151 168.411C320.067 168.296 320.611 168.068 320.783 167.724C320.954 167.324 321.04 166.15 321.04 164.205V116.049H312.368C311.051 116.049 310.078 116.077 309.448 116.135C308.876 116.192 308.504 116.392 308.332 116.735C308.16 117.022 307.96 117.537 307.731 118.28L304.983 127.809H302.579V113.044Z" fill="white"/>
<path d="M390.781 115.448V113.044H407.438V115.448L402.716 116.049C401.8 116.163 401.256 116.421 401.084 116.821C400.913 117.165 400.827 118.309 400.827 120.255V171.415H396.104L364.592 120.512V164.205C364.592 166.15 364.678 167.324 364.85 167.724C365.021 168.068 365.565 168.296 366.481 168.411L371.204 169.012V171.415H354.546V169.012L359.268 168.411C360.184 168.296 360.728 168.068 360.9 167.724C361.072 167.324 361.158 166.15 361.158 164.205V120.255C361.158 118.309 361.072 117.165 360.9 116.821C360.728 116.421 360.184 116.163 359.268 116.049L354.546 115.448V113.044H371.805L397.392 154.161V120.255C397.392 118.309 397.306 117.165 397.135 116.821C396.963 116.421 396.419 116.163 395.503 116.049L390.781 115.448Z" fill="white"/>
<path d="M413.494 115.448V113.044H437.021V115.448L432.298 116.049C431.382 116.163 430.838 116.421 430.667 116.821C430.495 117.165 430.409 118.309 430.409 120.255V164.205C430.409 166.15 430.495 167.324 430.667 167.724C430.838 168.068 431.382 168.296 432.298 168.411L437.021 169.012V171.415H413.494V169.012L418.216 168.411C419.132 168.296 419.676 168.068 419.848 167.724C420.02 167.324 420.105 166.15 420.105 164.205V120.255C420.105 118.309 420.02 117.165 419.848 116.821C419.676 116.421 419.132 116.163 418.216 116.049L413.494 115.448Z" fill="white"/>
<path d="M480.67 115.448V113.044H497.328V115.448L492.605 116.049C491.689 116.163 491.145 116.421 490.974 116.821C490.802 117.165 490.716 118.309 490.716 120.255V171.415H485.994L454.481 120.512V164.205C454.481 166.15 454.567 167.324 454.739 167.724C454.911 168.068 455.454 168.296 456.37 168.411L461.093 169.012V171.415H444.435V169.012L449.158 168.411C450.074 168.296 450.617 168.068 450.789 167.724C450.961 167.324 451.047 166.15 451.047 164.205V120.255C451.047 118.309 450.961 117.165 450.789 116.821C450.617 116.421 450.074 116.163 449.158 116.049L444.435 115.448V113.044H461.694L487.281 154.161V120.255C487.281 118.309 487.196 117.165 487.024 116.821C486.852 116.421 486.308 116.163 485.392 116.049L480.67 115.448Z" fill="white"/>
<path d="M530.688 147.38V144.977H555.073V147.38L550.351 147.981C549.435 148.095 548.891 148.353 548.719 148.754C548.548 149.097 548.462 150.241 548.462 152.187V171.415H546.143C544.598 169.813 542.881 168.468 540.992 167.381C539.446 168.754 537.614 169.927 535.496 170.9C533.378 171.816 530.802 172.274 527.769 172.274C523.075 172.274 519.039 171.101 515.662 168.754C512.342 166.351 509.794 163.06 508.02 158.883C506.245 154.648 505.358 149.841 505.358 144.462V139.054C505.358 133.846 506.245 129.239 508.02 125.234C509.794 121.17 512.399 117.994 515.833 115.705C519.268 113.359 523.475 112.186 528.455 112.186C533.149 112.186 537.013 113.044 540.047 114.761C543.138 116.421 545.399 118.652 546.83 121.457C548.261 124.203 548.805 127.208 548.462 130.47L538.416 132.959C539.045 127.236 538.416 122.859 536.527 119.826C534.638 116.735 531.833 115.19 528.112 115.19C520.27 115.19 516.349 122.143 516.349 136.049V148.324C516.349 162.288 520.499 169.269 528.799 169.269C530.631 169.269 532.462 168.897 534.294 168.153C536.183 167.409 537.757 166.322 539.017 164.891V152.187C539.017 150.241 538.931 149.068 538.759 148.668C538.587 148.267 538.044 148.038 537.128 147.981L530.688 147.38Z" fill="white"/>
<path d="M580.239 169.269C583.674 169.269 586.507 168.468 588.74 166.866C591.029 165.206 592.174 162.631 592.174 159.14C592.174 156.565 591.401 154.419 589.856 152.702C588.368 150.985 585.677 149.555 581.785 148.41L573.799 146.007C569.792 144.805 566.701 142.745 564.526 139.826C562.408 136.85 561.349 133.159 561.349 128.753C561.349 125.834 562.007 123.116 563.324 120.598C564.698 118.08 566.758 116.049 569.506 114.504C572.311 112.958 575.831 112.186 580.067 112.186C584.704 112.186 588.453 113.044 591.316 114.761C594.178 116.421 596.181 118.595 597.326 121.285C598.471 123.975 598.757 126.864 598.185 129.955L588.31 131.757C589.226 126.435 588.826 122.344 587.108 119.482C585.448 116.621 582.729 115.19 578.951 115.19C576.032 115.19 573.685 116.049 571.91 117.765C570.193 119.482 569.334 121.943 569.334 125.148C569.334 127.78 570.078 130.098 571.567 132.101C573.112 134.104 575.631 135.649 579.123 136.736L587.108 139.14C591.459 140.399 594.721 142.316 596.897 144.891C599.072 147.409 600.16 150.928 600.16 155.449C600.16 158.654 599.415 161.544 597.927 164.119C596.496 166.637 594.292 168.64 591.316 170.128C588.396 171.558 584.733 172.274 580.325 172.274C577.119 172.274 574.085 171.816 571.223 170.9C568.361 169.927 565.957 168.354 564.011 166.179C562.122 164.004 560.92 161.057 560.404 157.338L566.157 155.277C566.443 158.94 567.245 161.801 568.561 163.861C569.935 165.864 571.624 167.266 573.628 168.068C575.688 168.869 577.892 169.269 580.239 169.269Z" fill="white"/>
<path d="M644.768 115.448V113.044H661.426V115.448L656.703 116.049C655.787 116.163 655.244 116.421 655.072 116.821C654.9 117.165 654.814 118.309 654.814 120.255V171.415H650.092L618.579 120.512V164.205C618.579 166.15 618.665 167.324 618.837 167.724C619.009 168.068 619.553 168.296 620.469 168.411L625.191 169.012V171.415H608.533V169.012L613.256 168.411C614.172 168.296 614.716 168.068 614.887 167.724C615.059 167.324 615.145 166.15 615.145 164.205V120.255C615.145 118.309 615.059 117.165 614.887 116.821C614.716 116.421 614.172 116.163 613.256 116.049L608.533 115.448V113.044H625.792L651.38 154.161V120.255C651.38 118.309 651.294 117.165 651.122 116.821C650.95 116.421 650.407 116.163 649.491 116.049L644.768 115.448Z" fill="white"/>
<path d="M677.3 115.448V113.044H700.827V115.448L696.104 116.049C695.188 116.163 694.645 116.421 694.473 116.821C694.301 117.165 694.215 118.309 694.215 120.255V154.762C694.215 158.024 693.671 161 692.584 163.69C691.496 166.322 689.722 168.411 687.26 169.956C684.799 171.501 681.507 172.274 677.386 172.274C675.268 172.274 673.178 171.93 671.118 171.244C669.114 170.5 667.368 169.183 665.88 167.295C664.449 165.406 663.504 162.717 663.047 159.226L668.971 157.509C669.143 160.657 669.601 163.089 670.345 164.806C671.089 166.465 672.034 167.638 673.178 168.325C674.323 168.955 675.554 169.269 676.871 169.269C678.187 169.269 679.361 168.926 680.391 168.239C681.479 167.552 682.337 166.294 682.967 164.462C683.597 162.631 683.911 159.97 683.911 156.479V120.255C683.911 118.309 683.826 117.165 683.654 116.821C683.482 116.421 682.938 116.163 682.023 116.049L677.3 115.448Z" fill="white"/>
<path d="M747.158 156.651H749.562V171.415H707.059V169.012L711.782 168.411C712.698 168.296 713.242 168.068 713.413 167.724C713.585 167.324 713.671 166.15 713.671 164.205V120.255C713.671 118.309 713.585 117.165 713.413 116.821C713.242 116.421 712.698 116.163 711.782 116.049L707.059 115.448V113.044H748.704V127.809H746.299L743.552 118.28C743.38 117.594 743.18 117.107 742.951 116.821C742.779 116.478 742.407 116.278 741.834 116.22C741.262 116.106 740.289 116.049 738.915 116.049H723.975V140.427H733.763C735.137 140.427 736.11 140.399 736.683 140.341C737.255 140.227 737.627 140.027 737.799 139.74C738.028 139.397 738.228 138.882 738.4 138.195L740.289 131.242H742.693V152.616H740.289L738.4 145.663C738.228 144.977 738.028 144.49 737.799 144.204C737.627 143.861 737.255 143.66 736.683 143.603C736.11 143.489 735.137 143.432 733.763 143.432H723.975V168.411H739.774C741.147 168.411 742.121 168.382 742.693 168.325C743.266 168.211 743.638 168.01 743.809 167.724C744.038 167.381 744.239 166.866 744.41 166.179L747.158 156.651Z" fill="white"/>
<path d="M778.716 169.269C782.151 169.269 784.985 168.468 787.217 166.866C789.507 165.206 790.652 162.631 790.652 159.14C790.652 156.565 789.879 154.419 788.333 152.702C786.845 150.985 784.155 149.555 780.262 148.41L772.277 146.007C768.27 144.805 765.179 142.745 763.003 139.826C760.885 136.85 759.826 133.159 759.826 128.753C759.826 125.834 760.485 123.116 761.801 120.598C763.175 118.08 765.236 116.049 767.983 114.504C770.788 112.958 774.309 112.186 778.545 112.186C783.181 112.186 786.931 113.044 789.793 114.761C792.655 116.421 794.659 118.595 795.803 121.285C796.948 123.975 797.235 126.864 796.662 129.955L786.788 131.757C787.704 126.435 787.303 122.344 785.586 119.482C783.926 116.621 781.207 115.19 777.429 115.19C774.509 115.19 772.162 116.049 770.388 117.765C768.67 119.482 767.812 121.943 767.812 125.148C767.812 127.78 768.556 130.098 770.044 132.101C771.59 134.104 774.108 135.649 777.6 136.736L785.586 139.14C789.936 140.399 793.199 142.316 795.374 144.891C797.549 147.409 798.637 150.928 798.637 155.449C798.637 158.654 797.893 161.544 796.405 164.119C794.974 166.637 792.77 168.64 789.793 170.128C786.874 171.558 783.21 172.274 778.802 172.274C775.597 172.274 772.563 171.816 769.701 170.9C766.839 169.927 764.434 168.354 762.488 166.179C760.599 164.004 759.397 161.057 758.882 157.338L764.635 155.277C764.921 158.94 765.722 161.801 767.039 163.861C768.413 165.864 770.101 167.266 772.105 168.068C774.166 168.869 776.37 169.269 778.716 169.269Z" fill="white"/>
<path d="M804.349 113.044H851.574V127.809H849.17L846.423 118.28C846.251 117.537 846.05 117.022 845.821 116.735C845.65 116.392 845.278 116.192 844.705 116.135C844.133 116.077 843.16 116.049 841.786 116.049H833.114V164.205C833.114 166.15 833.199 167.324 833.371 167.724C833.543 168.068 834.087 168.296 835.003 168.411L839.725 169.012V171.415H816.198V169.012L820.921 168.411C821.837 168.296 822.38 168.068 822.552 167.724C822.724 167.324 822.81 166.15 822.81 164.205V116.049H814.138C812.821 116.049 811.848 116.077 811.218 116.135C810.646 116.192 810.274 116.392 810.102 116.735C809.93 117.022 809.73 117.537 809.501 118.28L806.753 127.809H804.349V113.044Z" fill="white"/>
<path d="M896.414 156.651H898.819V171.415H856.316V169.012L861.038 168.411C861.954 168.296 862.498 168.068 862.67 167.724C862.841 167.324 862.927 166.15 862.927 164.205V120.255C862.927 118.309 862.841 117.165 862.67 116.821C862.498 116.421 861.954 116.163 861.038 116.049L856.316 115.448V113.044H897.96V127.809H895.556L892.808 118.28C892.636 117.594 892.436 117.107 892.207 116.821C892.035 116.478 891.663 116.278 891.091 116.22C890.518 116.106 889.545 116.049 888.171 116.049H873.231V140.427H883.02C884.393 140.427 885.367 140.399 885.939 140.341C886.511 140.227 886.883 140.027 887.055 139.74C887.284 139.397 887.484 138.882 887.656 138.195L889.545 131.242H891.949V152.616H889.545L887.656 145.663C887.484 144.977 887.284 144.49 887.055 144.204C886.883 143.861 886.511 143.66 885.939 143.603C885.367 143.489 884.393 143.432 883.02 143.432H873.231V168.411H889.03C890.404 168.411 891.377 168.382 891.949 168.325C892.522 168.211 892.894 168.01 893.066 167.724C893.295 167.381 893.495 166.866 893.667 166.179L896.414 156.651Z" fill="white"/>
</svg>
