<svg width="229" height="229" viewBox="0 0 229 229" fill="none" xmlns="http://www.w3.org/2000/svg">
<g clip-path="url(#clip0_83_6)">
<path d="M186.062 93.0312C186.062 113.561 179.398 132.525 168.172 147.911L224.796 204.579C230.387 210.17 230.387 219.25 224.796 224.84C219.205 230.431 210.125 230.431 204.535 224.84L147.911 168.172C132.525 179.443 113.561 186.062 93.0312 186.062C41.6404 186.062 0 144.422 0 93.0312C0 41.6404 41.6404 0 93.0312 0C144.422 0 186.062 41.6404 186.062 93.0312ZM93.0312 157.438C101.489 157.438 109.864 155.772 117.678 152.535C125.493 149.298 132.593 144.554 138.573 138.573C144.554 132.593 149.298 125.493 152.535 117.678C155.772 109.864 157.438 101.489 157.438 93.0312C157.438 84.5733 155.772 76.1982 152.535 68.384C149.298 60.5699 144.554 53.4698 138.573 47.4892C132.593 41.5085 125.493 36.7644 117.678 33.5276C109.864 30.2909 101.489 28.625 93.0312 28.625C84.5733 28.625 76.1982 30.2909 68.384 33.5276C60.5699 36.7644 53.4698 41.5085 47.4892 47.4892C41.5085 53.4698 36.7643 60.5699 33.5276 68.384C30.2909 76.1982 28.625 84.5733 28.625 93.0312C28.625 101.489 30.2909 109.864 33.5276 117.678C36.7643 125.493 41.5085 132.593 47.4892 138.573C53.4698 144.554 60.5699 149.298 68.384 152.535C76.1982 155.772 84.5733 157.438 93.0312 157.438Z" fill="white"/>
</g>
<defs>
<clipPath id="clip0_83_6">
<rect width="229" height="229" fill="white"/>
</clipPath>
</defs>
</svg>
